<?xml version="1.0" encoding="UTF-8"?>
<svg width="256px" height="32px" viewBox="0 0 256 32" version="1.1" xmlns="http://www.w3.org/2000/svg" xmlns:xlink="http://www.w3.org/1999/xlink">
    <!-- Generator: Sketch 40.1 (33804) - http://www.bohemiancoding.com/sketch -->
    <title>Slice</title>
    <desc>Created with Sketch.</desc>
    <defs></defs>
    <g id="Page-1" stroke="none" stroke-width="1" fill="none" fill-rule="evenodd">
        <g id="app_bg" transform="translate(-10.000000, -7.000000)" fill="#FFFFFF">
            <g id="ic_app_24px" transform="translate(214.000000, 15.000000)">
                <g id="Page-1">
                    <g id="ic_system_update_black_24px">
                        <path d="M8.72727273,0.00727272727 L1.45454545,0 C0.654545455,0 0,0.654545455 0,1.45454545 L0,14.5454545 C0,15.3454545 0.654545455,16 1.45454545,16 L8.72727273,16 C9.52727273,16 10.1818182,15.3454545 10.1818182,14.5454545 L10.1818182,1.45454545 C10.1818182,0.654545455 9.52727273,0.00727272727 8.72727273,0.00727272727 L8.72727273,0.00727272727 L8.72727273,0.00727272727 Z M8.72727273,13.0909091 L1.45454545,13.0909091 L1.45454545,2.90909091 L8.72727273,2.90909091 L8.72727273,13.0909091 L8.72727273,13.0909091 L8.72727273,13.0909091 Z M8,8.72727273 L5.81818182,8.72727273 L5.81818182,5.09090909 L4.36363636,5.09090909 L4.36363636,8.72727273 L2.18181818,8.72727273 L5.09090909,11.6363636 L8,8.72727273 L8,8.72727273 L8,8.72727273 Z" id="Shape"></path>
                    </g>
                </g>
            </g>
            <g id="large--16-columns-Desktop-HD" transform="translate(18.000000, 15.000000)">
                <g id="Artboard-5">
                    <g id="Group-6">
                        <path d="M6.2989461,10.4984124 C6.1182688,10.5140693 5.9351564,10.5220767 5.75,10.5220767 C5.0406596,10.5220767 4.3613191,10.4045542 3.7339682,10.1896289 C3.4184626,10.0815393 2.2656405,11.3598033 1.9792311,11.2050015 C1.8085957,11.1127747 2.4940866,9.6017226 2.3353631,9.4943651 C0.91865469,8.5361301 0,6.996743 0,5.2610383 C0,2.3554469 2.5743625,0 5.75,0 C8.5620362,0 10.9026034,1.8469421 11.4017151,4.2873392 C11.351318,4.2860699 11.3007431,4.285431 11.25,4.285431 C8.3505049,4.285431 6,6.3714878 6,8.9447695 C6,9.489544 6.1053465,10.0124817 6.2989461,10.4984124 L6.2989461,10.4984124 Z M11.25,13.1956767 C11.8094067,13.1956767 12.3462273,13.109854 12.8446572,12.952235 C13.0083126,12.9004821 14.115849,13.9302929 14.2706673,13.8635561 C14.5218561,13.7552772 13.8126572,12.5386257 14.0367207,12.3943303 C15.2263634,11.6282082 16,10.3843282 16,8.9800848 C16,6.6518775 13.8733527,4.7644928 11.25,4.7644928 C8.6266473,4.7644928 6.5,6.6518775 6.5,8.9800848 C6.5,11.308292 8.6266473,13.1956767 11.25,13.1956767 L11.25,13.1956767 Z M12.5,7.9408213 C12.7761424,7.9408213 13,7.7038062 13,7.4114332 C13,7.1190603 12.7761424,6.8820452 12.5,6.8820452 C12.2238576,6.8820452 12,7.1190603 12,7.4114332 C12,7.7038062 12.2238576,7.9408213 12.5,7.9408213 L12.5,7.9408213 Z M9.5,7.9408213 C9.7761424,7.9408213 10,7.7038062 10,7.4114332 C10,7.1190603 9.7761424,6.8820452 9.5,6.8820452 C9.2238576,6.8820452 9,7.1190603 9,7.4114332 C9,7.7038062 9.2238576,7.9408213 9.5,7.9408213 L9.5,7.9408213 Z M7.75,4.2351047 C8.1642136,4.2351047 8.5,3.8795821 8.5,3.4410226 C8.5,3.0024631 8.1642136,2.6469404 7.75,2.6469404 C7.3357864,2.6469404 7,3.0024631 7,3.4410226 C7,3.8795821 7.3357864,4.2351047 7.75,4.2351047 L7.75,4.2351047 Z M3.75,4.2351047 C4.1642136,4.2351047 4.5,3.8795821 4.5,3.4410226 C4.5,3.0024631 4.1642136,2.6469404 3.75,2.6469404 C3.3357864,2.6469404 3,3.0024631 3,3.4410226 C3,3.8795821 3.3357864,4.2351047 3.75,4.2351047 L3.75,4.2351047 Z" id="wechat_G"></path>
                        <path d="M39.1494645,13.8505221 C43.0980049,13.8505221 46.2681226,11.6358472 46.2681228,8.9039071 C46.2681228,6.5959654 43.5731124,6.5959654 43.5731124,6.4469861 C43.5731124,6.2980068 44.9151617,4.9571963 43.5731124,4.1229138 C42.2310632,3.2886313 39.776287,4.5570476 39.8501081,4.4208718 C40.9058854,2.4733075 39.396834,1.8584329 38.6276287,1.8584329 C36.7939098,1.8584329 32,6.1719669 32,8.9039071 C32,11.6358472 35.2009241,13.8505221 39.1494645,13.8505221 L39.1494645,13.8505221 Z M39.3663198,12.3352465 C41.8889737,11.9807106 43.7336434,10.2677734 43.4865052,8.5092938 C43.2393671,6.7508143 40.9940072,5.6126932 38.4713534,5.9672291 C35.9486995,6.321765 34.1040298,8.0347022 34.351168,9.7931818 C34.5983061,11.5516613 36.843666,12.6897824 39.3663198,12.3352465 L39.3663198,12.3352465 Z M38.9017265,11.8562303 C40.4021115,11.564585 41.4071238,10.2411672 41.1464845,8.9002939 C40.8858451,7.5594205 39.4582529,6.7088532 37.9578679,7.0004985 C36.4574829,7.2921438 35.4524706,8.6155615 35.71311,9.9564349 C35.9737494,11.2973082 37.4013415,12.1478756 38.9017265,11.8562303 L38.9017265,11.8562303 Z M38.9188366,9.3985686 C39.1735811,9.3985686 39.3800924,9.1771011 39.3800924,8.9039071 C39.3800924,8.630713 39.1735811,8.4092456 38.9188366,8.4092456 C38.6640921,8.4092456 38.4575808,8.630713 38.4575808,8.9039071 C38.4575808,9.1771011 38.6640921,9.3985686 38.9188366,9.3985686 L38.9188366,9.3985686 Z M37.8764324,10.5269433 C38.3381863,10.3116239 38.5721175,9.8359965 38.3989323,9.4645997 C38.2257471,9.0932029 37.7110273,8.9666772 37.2492734,9.1819966 C36.7875195,9.397316 36.5535883,9.8729433 36.7267735,10.2443401 C36.8999587,10.6157369 37.4146785,10.7422627 37.8764324,10.5269433 L37.8764324,10.5269433 Z M45.32348,2.9310817 C44.4899716,2.126595 44.0608178,2.4107976 44.0608178,2.4107976 C43.5136808,2.4453209 43.0701386,2.9156684 43.0701386,3.3184271 L43.0701386,2.4733075 C43.0701386,2.9400542 43.5208882,3.3017331 44.0709416,3.3621813 C44.0709416,3.3621813 44.3232699,3.1694483 44.7678077,3.7355684 C45.2123455,4.3016886 44.9622767,4.5783571 44.9622767,4.5783571 C44.8548744,5.1166995 45.2084979,5.5531123 45.7402343,5.5531122 L44.7678077,5.5531123 C45.3048641,5.5531123 45.8114569,5.1070118 45.8443473,4.5697176 C45.8443473,4.5697176 46.1569884,3.7355684 45.32348,2.9310817 L45.32348,2.9310817 Z M46.8793627,1.3221084 C45.3512639,-0.22727347 44.1097704,0.0707294 44.1097704,0.0707294 C43.280853,0.0316666 42.6088828,0.6765464 42.6088828,1.3221084 L42.6088828,0 C42.6088828,0.7301803 43.2826916,1.305539 44.1079861,1.3766193 C44.1079861,1.3766193 45.2679129,1.0620678 46.1847722,2.4733076 C47.1016314,3.8845475 46.7498151,4.6946047 46.7498151,4.6946047 C46.6832618,5.5143163 47.2977786,6.1788239 47.8517892,6.1788239 L46.6293098,6.1788239 C47.3044665,6.1788239 47.9249323,5.5066671 47.9495889,4.681258 C47.9495889,4.681258 48.4074616,2.8714902 46.8793627,1.3221084 L46.8793627,1.3221084 Z" id="sina_weibo_G"></path>
                        <path d="M77.0222251,7.5842406 C77.0429077,9.7444657 78.9785787,10.4631866 79,10.4724199 C78.9837494,10.5233877 78.6908688,11.4969479 77.9802733,12.5030093 C77.3660735,13.3724178 76.7282365,14.2388716 75.724391,14.2569689 C74.7375349,14.2746968 74.4202784,13.690413 73.2919679,13.690413 C72.1640268,13.690413 71.8113144,14.2388716 70.8772728,14.2746968 C69.9081446,14.3101527 69.1698492,13.3340072 68.5504787,12.4675534 C67.2847766,10.6951273 66.3174951,7.4594062 67.6164371,5.2751745 C68.2616608,4.1904453 69.4143472,3.503487 70.6660147,3.4861284 C71.6177842,3.4684005 72.5163699,4.1062375 73.0984378,4.1062375 C73.6797669,4.1062375 74.7718828,3.3391341 75.9197679,3.4517805 C76.4002693,3.4713551 77.7490712,3.6397707 78.6151557,4.8678009 C78.5449825,4.9099048 77.0052358,5.7782052 77.0222251,7.5842406 M75.1674378,2.2791502 C75.6819178,1.675661 76.0287209,0.8357992 75.9341718,-1.77635684e-15 C75.1921831,0.0288079 74.2950747,0.4786548 73.7632361,1.0817746 C73.2860586,1.6158292 72.868713,2.4704643 72.9813594,3.2900129 C73.8082946,3.3520608 74.6529578,2.8830086 75.1674378,2.2791502" id="apple"></path>
                        <path d="M102.4,10.785 C102.4,11.145 102.64,11.385 103,11.385 L103.6,11.385 L103.6,13.485 C103.6,13.965 104.02,14.385 104.5,14.385 C104.98,14.385 105.4,13.965 105.4,13.485 L105.4,11.385 L106.6,11.385 L106.6,13.485 C106.6,13.965 107.02,14.385 107.5,14.385 C107.98,14.385 108.4,13.965 108.4,13.485 L108.4,11.385 L109,11.385 C109.36,11.385 109.6,11.145 109.6,10.785 L109.6,4.785 L102.4,4.785 L102.4,10.785 L102.4,10.785 L102.4,10.785 Z M100.9,4.785 C100.42,4.785 100,5.205 100,5.685 L100,9.885 C100,10.365 100.42,10.785 100.9,10.785 C101.38,10.785 101.8,10.365 101.8,9.885 L101.8,5.685 C101.8,5.205 101.38,4.785 100.9,4.785 L100.9,4.785 L100.9,4.785 Z M111.1,4.785 C110.62,4.785 110.2,5.205 110.2,5.685 L110.2,9.885 C110.2,10.365 110.62,10.785 111.1,10.785 C111.58,10.785 112,10.365 112,9.885 L112,5.685 C112,5.205 111.58,4.785 111.1,4.785 L111.1,4.785 L111.1,4.785 Z M108.1,1.305 L108.88,0.525 C109,0.405 109,0.225 108.88,0.105 C108.76,-0.015 108.58,-0.015 108.46,0.105 L107.56,1.005 C107.14,0.705 106.6,0.585 106,0.585 C105.4,0.585 104.86,0.705 104.38,0.945 L103.54,0.045 C103.42,-0.015 103.18,-0.015 103.06,0.045 C103,0.165 103,0.405 103.06,0.525 L103.84,1.305 C103,1.965 102.4,2.985 102.4,4.185 L109.6,4.185 C109.6,2.985 109,1.905 108.1,1.305 L108.1,1.305 L108.1,1.305 Z M104.8,2.985 L104.2,2.985 L104.2,2.385 L104.8,2.385 L104.8,2.985 L104.8,2.985 L104.8,2.985 Z M107.8,2.985 L107.2,2.985 L107.2,2.385 L107.8,2.385 L107.8,2.985 L107.8,2.985 L107.8,2.985 Z" id="Android"></path>
                        <path d="M131,5 C129.9,5 129,5.9 129,7 C129,8.1 129.9,9 131,9 C132.1,9 133,8.1 133,7 C133,5.9 132.1,5 131,5 L131,5 L131,5 Z M143,5 C141.9,5 141,5.9 141,7 C141,8.1 141.9,9 143,9 C144.1,9 145,8.1 145,7 C145,5.9 144.1,5 143,5 L143,5 L143,5 Z M137,5 C135.9,5 135,5.9 135,7 C135,8.1 135.9,9 137,9 C138.1,9 139,8.1 139,7 C139,5.9 138.1,5 137,5 L137,5 L137,5 Z" id="Shape"></path>
                        <g id="zhihu_icon" transform="translate(165.000000, 0.000000)">
                            <g id="zhihu">
                                <g id="Page-1">
                                    <g id="zhihu">
                                        <path d="M3.98617618,0 C3.87195407,0.273635134 3.69552484,0.494171598 3.60379569,0.71541605 C3.37289128,1.10516027 3.22738988,1.52428575 3.14444705,2.13333333 L7.32321931,2.13333333 C7.89186975,2.13333333 8.19165887,2.26837508 8.30236644,2.80006974 C8.35438145,3.05104944 8.33610589,3.51386431 8.33610589,3.55555556 L5.54732895,3.55555556 L5.48512185,7.11111111 L5.79229145,7.11111111 L7.737582,7.11111111 C8.04339909,7.11111111 8.29217433,7.33575794 8.46368324,7.58744562 C8.6049672,7.79594638 8.72727273,8.53333333 8.72727273,8.53333333 L5.41834582,8.53333333 C5.31080131,9.82396149 5.17900655,10.164147 5.04791473,10.8034549 C5.10028116,10.8091188 5.66541705,10.321673 5.66541705,10.321673 C5.66541705,10.321673 5.74800844,10.3191951 6.04076851,10.7043374 C6.51663542,11.3337336 7.11410498,12.0286182 7.60824742,12.6427927 C8.15756796,13.3242257 8.21204313,14.186548 7.73371604,15.0056835 C6.75210873,13.8191052 5.88120898,12.5620828 4.82579662,11.4045318 C4.59454076,12.0512736 4.41740862,12.6619083 4.14995313,13.2392678 C3.90780225,13.7610507 3.76827553,14.0102604 3.43861293,14.4757588 C2.69493908,15.5271124 1.48980787,16.0428774 0.347586692,15.9972126 C0.228092784,15.9926107 0,15.942344 0,15.942344 C0,15.942344 0.0832942829,15.8765016 0.146555764,15.8258809 C0.890229615,15.2386096 1.82333646,14.1522109 2.37757732,13.3847582 C3.45231959,11.8969335 3.78549673,10.5135362 4.02799905,8.70003968 C4.07122775,8.37613781 4.0649016,8.53333333 4.0649016,8.53333333 L0.638940956,8.53333333 C0.434797938,8.53333333 0.262535145,8.43985621 0.262535145,8.53333333 C0.262535145,8.43985621 0.289597001,8.27241842 0.349695408,8.12338816 C0.547211807,7.63488043 0.845829902,7.11111111 1.39807872,7.11111111 L3.85227273,7.11111111 C4.13891098,7.11111111 4.15768509,7.26531371 4.15768509,7.11111111 L4.27014996,3.55421929 L2.74695408,3.55555556 C2.74695408,3.53439579 2.55822399,3.71230485 2.36633083,4.18240505 C2.00398313,5.07198475 1.19493908,5.61252917 0.290651359,5.54916476 C0.873008436,4.28116857 1.31935333,3.35866772 1.6648313,2.01102354 C1.66588566,2.01208551 1.80119494,1.59083608 1.82685099,1.55614495 C2.15721649,0.590103193 2.93884724,0.118587024 3.98617618,0 L3.98617618,0 L3.98617618,0 Z" id="Shape"></path>
                                        <path d="M9.45454545,13.8666667 L10.9090909,13.8666667 L11.5251643,15.6444444 L13.8181818,13.8666667 L16,13.8666667 L16,1.77777778 L9.45454545,1.77777778 L9.45454545,13.8666667 L9.45454545,13.8666667 L9.45454545,13.8666667 Z M13.4545455,12.8 L12,13.8666667 L11.6363636,12.8 L10.9090909,12.8 L10.9090909,2.84444444 L14.5454545,2.84444444 L14.5454545,12.8 L13.4545455,12.8 L13.4545455,12.8 L13.4545455,12.8 Z" id="Shape"></path>
                                    </g>
                                </g>
                            </g>
                        </g>
                    </g>
                </g>
            </g>
        </g>
        <g id="ic_ebook_24px" transform="translate(232.000000, 9.000000)" fill="#FFFFFF">
            <g id="Page-1">
                <g id="Clipped">
                    <path d="M15.5555556,0.777777778 C14.6922222,0.505555556 13.7433333,0.388888889 12.8333333,0.388888889 C11.3166667,0.388888889 9.68333333,0.7 8.55555556,1.55555556 C7.42777778,0.7 5.79444444,0.388888889 4.27777778,0.388888889 C2.76111111,0.388888889 1.12777778,0.7 0,1.55555556 L0,12.95 C0,13.1444444 0.194444444,13.3388889 0.388888889,13.3388889 C0.466666667,13.3388889 0.505555556,13.3 0.583333333,13.3 C1.63333333,12.7944444 3.15,12.4444444 4.27777778,12.4444444 C5.79444444,12.4444444 7.42777778,12.7555556 8.55555556,13.6111111 C9.60555556,12.95 11.5111111,12.4444444 12.8333333,12.4444444 C14.1166667,12.4444444 15.4388889,12.6777778 16.5277778,13.2611111 C16.6055556,13.3 16.6444444,13.3 16.7222222,13.3 C16.9166667,13.3 17.1111111,13.1055556 17.1111111,12.9111111 L17.1111111,1.55555556 C16.6444444,1.20555556 16.1388889,0.972222222 15.5555556,0.777777778 L15.5555556,0.777777778 L15.5555556,0.777777778 Z M15.5555556,11.2777778 C14.7,11.0055556 13.7666667,10.8888889 12.8333333,10.8888889 C11.5111111,10.8888889 9.60555556,11.3944444 8.55555556,12.0555556 L8.55555556,3.11111111 C9.60555556,2.45 11.5111111,1.94444444 12.8333333,1.94444444 C13.7666667,1.94444444 14.7,2.06111111 15.5555556,2.33333333 L15.5555556,11.2777778 L15.5555556,11.2777778 L15.5555556,11.2777778 Z" id="Shape"></path>
                </g>
            </g>
        </g>
    </g>
</svg>