<?xml version="1.0" encoding="UTF-8" standalone="no"?>
<svg width="229px" height="22px" viewBox="0 0 229 22" version="1.1" xmlns="http://www.w3.org/2000/svg" xmlns:xlink="http://www.w3.org/1999/xlink">
    <!-- Generator: Sketch 39 (31667) - http://www.bohemiancoding.com/sketch -->
    <title>Group 2</title>
    <desc>Created with Sketch.</desc>
    <defs></defs>
    <g id="large--16-columns-Desktop-HD" stroke="none" stroke-width="1" fill="none" fill-rule="evenodd">
        <g id="Desktop-HD_VG评测_下滚" transform="translate(-90.000000, -4362.000000)">
            <g id="footer" transform="translate(0.000000, 4333.000000)">
                <g id="Group-2" transform="translate(90.000000, 29.000000)">
                    <path d="M63.1235025,20 L82.7270747,20 L82.7270747,0 L63.1235025,0 L63.1235025,20 Z M65.3016772,17.8 L80.5489,17.8 L80.5489,2.2 L65.3016772,2.2 L65.3016772,17.8 Z M52.6029188,16.9147222 L61.3156175,16.9147222 L61.3156175,3.5 L52.6029188,3.5 L52.6029188,16.9147222 Z M54.7810934,14.7147222 L59.1374428,14.7147222 L59.1374428,5.7 L54.7810934,5.7 L54.7810934,14.7147222 Z M83.6636898,20 L100,20 L100,0 L83.6636898,0 L83.6636898,20 Z M85.8418645,17.8 L97.8218253,17.8 L97.8218253,2.2 L85.8418645,2.2 L85.8418645,17.8 Z M35.0686125,20 L51.4049227,20 L51.4049227,0 L35.0686125,0 L35.0686125,20 Z M37.2467872,17.8 L49.226748,17.8 L49.226748,2.2 L37.2467872,2.2 L37.2467872,17.8 Z M96.6891745,11.1560028 L96.6891745,3.5 L87.1705511,3.5 L87.1705511,16.5 L96.6891745,16.5 L96.6891745,13.2903921 L91.4010504,13.2903921 L91.4010504,6.7096079 L92.9874876,6.7096079 L92.9874876,11.1396828 L96.6891745,11.1560028 Z M79.4053583,3.5 L79.4053583,16.5 L76.2116097,16.5 L76.2116097,6.71695192 L74.6147354,6.71695192 L74.6147354,16.5 L71.4209867,16.5 L71.4209867,6.71695192 L69.8241124,6.71695192 L69.8241124,16.5 L66.6303638,16.5 L66.6303638,3.5 L79.4053583,3.5 Z M17.5343063,0 L33.565672,0 L33.565672,20 L17.5343063,20 L17.5343063,0 Z M27.2271836,13.2908333 L23.9599216,13.2908333 L23.9599216,6.16111111 L31.583533,6.16111111 L31.583533,2.18138889 L19.6035722,2.18138889 L19.6035722,17.8186111 L31.583533,17.8186111 L31.583533,8.90194444 L27.2271836,8.88888889 L27.2271836,13.2908333 Z M0,0 L16.0313657,0 L16.0313657,20 L0,20 L0,0 Z M8.01568286,13 C7.83965701,10.0915245 7.43572971,6.38303483 6.87023149,2 L2.00392071,2 L4.6698409,17.5 L11.6792629,17.5 L14.027445,2 L9.16113422,2 C9.16113422,2 8.31977662,10.0591551 8.01568286,13 Z M45.5822382,6.71695192 L45.5822382,16.5 L41.2195358,16.5 L41.2195358,6.71695192 L38.5754738,6.71695192 L38.5754738,3.5 L48.0940971,3.5 L48.0940971,6.71695192 L45.5822382,6.71695192 Z" id="Overlay_Logo" fill="#FFFFFF"></path>
                    <polygon id="X" fill="#2ABACA" points="124.432 11.616 131.152 2.568 129.904 2.568 123.88 10.896 117.736 2.568 116.464 2.568 123.28 11.688 116.272 21 117.568 21 123.832 12.432 130.096 21 131.416 21"></polygon>
                    <path d="M156.369098,3.83333333 L154.49651,14.1863956 C154.451582,14.4338223 154.313847,14.6425202 154.075601,14.8250986 C153.824263,15.0177132 153.55675,15.1112541 153.257788,15.1112541 L147.759659,15.1112541 C147.390097,15.1112541 147.222195,14.9779551 147.126692,14.8763081 C146.989084,14.7310431 146.947237,14.576514 146.986902,14.3590667 L148.890426,3.83333333 L143.687922,3.83333333 L141.747814,14.5612026 C141.489415,15.9901784 141.848196,17.2484131 142.823256,18.3101733 C143.803451,19.3208526 145.094289,19.8333333 146.659572,19.8333333 L152.999903,19.8333333 C154.546059,19.8333333 155.978355,19.3366787 157.256999,18.3572654 C158.556822,17.3611254 159.34524,16.1418768 159.60043,14.7334877 L161.571089,3.83333333 L156.369098,3.83333333 Z M165.49097,14.8764368 C165.353748,14.7314291 165.312029,14.5766426 165.351181,14.3590667 L166.235744,9.46830503 C166.278746,9.22937039 166.41584,9.02401784 166.653957,8.84143935 C166.906194,8.64856751 167.177814,8.55489792 167.484221,8.55489792 L176.976811,8.55489792 L177.830438,3.83333333 L167.742877,3.83333333 C166.188762,3.83333333 164.74748,4.33333333 163.458824,5.32008063 C162.168628,6.3088866 161.38573,7.5206725 161.131952,8.9219849 L160.112092,14.5613313 C159.853951,15.9901784 160.212602,17.2482844 161.187534,18.3101733 C162.168114,19.3208526 163.458824,19.8333333 165.02385,19.8333333 L174.937734,19.8333333 L175.790976,15.1112541 L166.123809,15.1112541 C165.754503,15.1112541 165.586345,14.9775691 165.49097,14.8764368 Z M182.494965,9.46907703 C182.538224,9.22975639 182.675446,9.02440384 182.914333,8.84105335 C183.1658,8.64856751 183.437292,8.55489792 183.744341,8.55489792 L195.341603,8.55489792 L196.195102,3.83333333 L184.001584,3.83333333 C182.447213,3.83333333 181.006188,4.33333333 179.719072,5.3198233 C178.427977,6.30901527 177.645208,7.52092983 177.3922,8.92185624 L176.371442,14.5613313 C176.113557,15.9905644 176.472337,17.2487991 177.447397,18.3101733 C178.427592,19.3208526 179.718302,19.8333333 181.283071,19.8333333 L193.301242,19.8333333 L195.177809,9.45621033 L185.752868,9.45621033 L184.928636,14.0152685 L189.151587,14.0152685 L188.95352,15.1112541 L182.384057,15.1112541 C182.014751,15.1112541 181.845951,14.9775691 181.750576,14.8764368 C181.613226,14.7311717 181.571635,14.5769 181.6113,14.3590667 L182.494965,9.46907703 Z" id="Fill-1" fill="#FFFFFF"></path>
                    <path d="M200.806954,20.9033203 C200.360909,20.9033203 199.976021,20.7594369 199.652278,20.4716656 C199.328536,20.1838944 199.166667,19.7810207 199.166667,19.2630325 C199.166667,18.8241814 199.321341,18.4464874 199.630695,18.129939 C199.94005,17.8133907 200.321341,17.6551189 200.77458,17.6551189 C201.22782,17.6551189 201.614507,17.8115921 201.934652,18.1245433 C202.254798,18.4374945 202.414868,18.8169871 202.414868,19.2630325 C202.414868,19.7738265 202.254798,20.1749016 201.934652,20.46627 C201.614507,20.7576383 201.238611,20.9033203 200.806954,20.9033203 Z M215.022901,21.021008 C213.740665,21.3624731 212.552523,21.5332031 211.458441,21.5332031 C209.625679,21.5332031 208.177959,20.994881 207.115236,19.9182205 C206.052512,18.8415601 205.521159,17.376418 205.521159,15.5227502 C205.521159,13.6481763 206.068192,12.181292 207.162274,11.1220533 C208.256356,10.0628146 209.768536,9.53320312 211.698859,9.53320312 C212.632662,9.53320312 213.709306,9.68302741 214.928824,9.98268048 L214.928824,12.2196143 C213.660525,11.8084624 212.646598,11.6028895 211.887013,11.6028895 C210.960179,11.6028895 210.214541,11.9582867 209.650079,12.6690916 C209.085616,13.3798966 208.803389,14.324138 208.803389,15.5018442 C208.803389,16.7074252 209.108264,17.6725723 209.718023,18.3973146 C210.327782,19.1220569 211.141363,19.4844226 212.15879,19.4844226 C213.085623,19.4844226 214.040318,19.2823341 215.022901,18.8781509 L215.022901,21.021008 Z M217.94973,21.2718791 L217.94973,9.79452717 L221.043807,9.79452717 L221.043807,11.2082902 C221.927133,10.2158284 223.357388,9.53320312 224.953215,9.53320312 C225.97761,9.53320312 226.785964,9.8572417 227.378302,10.5053286 C227.970639,11.1534154 228.266803,12.038424 228.266803,13.1603808 L228.266803,21.2718791 L225.172727,21.2718791 L225.172727,13.923447 C225.172727,12.6203046 224.740675,11.9687432 223.87656,11.9687432 C222.893976,11.9687432 221.949735,12.6621161 221.043807,14.0488826 L221.043807,21.2718791 L217.94973,21.2718791 Z" id=".cn" fill="#FFFFFF"></path>
                </g>
            </g>
        </g>
    </g>
</svg>