<?xml version="1.0" encoding="UTF-8" standalone="no"?>
<svg width="98px" height="14px" viewBox="0 0 98 14" version="1.1" xmlns="http://www.w3.org/2000/svg" xmlns:xlink="http://www.w3.org/1999/xlink">
    <!-- Generator: Sketch 39 (31667) - http://www.bohemiancoding.com/sketch -->
    <title>游戏时光</title>
    <desc>Created with Sketch.</desc>
    <defs></defs>
    <g id="Symbols" stroke="none" stroke-width="1" fill="none" fill-rule="evenodd" fill-opacity="0.3">
        <g id="footer" transform="translate(-90.000000, -213.000000)" fill="#FFFFFF">
            <g id="Group-4" transform="translate(90.000000, 213.000000)">
                <g id="游戏时光">
                    <path d="M93.585067,3.86221068 L94.9298363,4.69187368 L96.6031909,1.33844657 L95.1987506,0.351505234 L93.585067,3.86221068 Z M89.6147768,0.415325464 L89.6147768,5.52173427 L83.5955214,5.52173427 L83.5955214,7.05361739 L86.4130957,7.05361739 L83.4674857,13.2111829 L85.3200507,13.2499098 L88.1421695,7.05361739 L92.3043155,7.0409719 L92.3043155,13.436826 L97.1070348,13.436826 L97.1070348,11.9047453 L93.8413358,11.9047453 L93.8413358,7.0409719 L97.1710526,7.05361739 L97.1710526,5.52173427 L91.215815,5.52173427 L91.215815,0.415325464 L89.6147768,0.415325464 Z M84.3510897,1.24518605 L85.5806665,4.62805345 L87.0833069,3.8325728 L85.8240922,0.606786157 L84.3510897,1.24518605 Z" id="光"></path>
                    <path d="M56.7005481,13.3783406 L62.4655105,13.3783406 L62.4655105,0.674162933 L56.7005481,0.674162933 L56.7005481,13.3783406 Z M58.1575461,2.19873538 L61.1857469,2.16198441 L61.1857469,5.94634627 L58.1575461,5.94634627 L58.1575461,2.19873538 Z M58.1575461,7.47091871 L61.1857469,7.47091871 L61.1857469,11.8826157 L58.1575461,11.9173908 L58.1575461,7.47091871 Z M69.3833864,0.293019821 L69.3833864,2.19873538 L64.4166708,2.19873538 L64.4166708,3.72311024 L69.3833864,3.72311024 L69.3833864,11.8539657 L65.6203638,11.8539657 L65.6203638,13.3783406 L70.9672346,13.3783406 L70.9672346,3.72311024 L70.9672346,2.19873538 L70.9672346,0.293019821 L69.3833864,0.293019821 Z M64.8476056,6.34033246 L66.8242544,8.74119817 L68.0911749,7.72501412 L66.1147236,5.32395083 L64.8476056,6.34033246 Z" id="Combined-Shape"></path>
                    <path d="M28.8868184,1.32797452 L28.8868184,2.75454439 L32.7683925,2.75454439 L32.7683925,4.80094107 L31.6789041,6.66634912 L30.4758038,4.18664665 L29.2037461,4.65038065 L30.8727538,7.90679311 L28.0773092,11.7848107 L29.0729443,13.0863087 L31.6789041,9.14703951 L32.1785987,10.1756715 L33.4522371,9.55722774 L32.4850544,7.90679311 L34.2566092,5.04910891 L34.2566092,1.32797452 L28.8868184,1.32797452 Z M39.565741,0.566873814 L39.5017232,2.66839695 L40.9593141,2.64844078 L41.0221464,0.545534542 L39.565741,0.566873814 Z M38.3118612,0 L36.8238422,0.000987929268 L36.9477285,3.28703826 L35.3976675,3.31746648 L35.3374038,4.7754525 L37.0097704,4.77624284 L37.351594,9.64396793 L34.5998158,11.16202 L35.2569863,12.5253624 L38.063891,10.8537861 L41.9116779,13.2732249 L41.9703609,11.6599364 L39.5521076,10.0476358 L42.0324028,8.80719184 L41.5362648,7.50490348 L38.8398106,8.93127576 L38.4977895,4.74561703 L41.6603487,4.71597916 L41.6870228,3.28960688 L38.4359451,3.28782861 L38.3118612,0 Z" id="Combined-Shape"></path>
                    <path d="M1.42617469,7.65862528 L0,13.0566708 L1.54393586,13.0863087 L2.90846377,7.656847 L1.42617469,7.65862528 Z M0.131197007,5.67407296 L2.90964928,6.71179386 L2.98216329,5.18386246 L0.12961632,4.20482455 L0.131197007,5.67407296 Z M9.46890687,4.09397889 L9.46890687,5.39626725 L12.612893,5.39626725 L11.8978298,7.56694544 L10.1470215,7.6289874 L8.85263659,7.6289874 L8.85263659,8.99331772 L11.527949,8.99331772 L11.8114847,9.86150996 L12.2058661,11.7838227 L9.22251731,11.7838227 L9.22251731,13.0863087 L13.9566744,13.0863087 L13.167714,9.73742604 L13.0072743,8.99331772 L13.2538615,7.6289874 L14.0305715,5.33422529 L14.0305715,4.09397889 L9.46890687,4.09397889 Z M0.185533117,1.9373293 L2.95904575,2.87922106 L2.95884816,1.41036782 L0.201142399,0.428958888 L0.185533117,1.9373293 Z M9.22251731,3.69307719 L10.3936087,3.72192473 L10.578549,2.48148074 L14.2153142,2.48148074 L14.2153142,1.05530604 L10.8251362,1.05530604 L10.8840168,0.148782148 L9.7156916,0.100176028 L9.22251731,3.69307719 Z M5.64739887,1.55144412 L3.61305492,1.55144412 L3.61305492,2.97761882 L4.41446314,2.97761882 L4.29116957,5.08625505 L2.254257,13.1195031 L3.73634849,13.0863087 L5.46245851,6.0785312 L7.18837094,6.0785312 L6.63354987,11.7219784 L5.27751815,11.7219784 L5.27751815,13.0863087 L7.86648559,13.0863087 L8.54440266,6.0785312 L8.54440266,4.59011697 L5.64739887,4.59011697 L5.77049486,2.97761882 L8.85263659,2.97761882 L8.85263659,1.55144412 L7.12672416,1.55144412 L6.48555806,0.0944460381 L5.06768198,0.0926677654 L5.64739887,1.55144412 Z" id="Combined-Shape"></path>
                </g>
            </g>
        </g>
    </g>
</svg>